ply
format ascii 1.0
comment VCGLIB generated
element vertex 420
property float x
property float y
property float z
property float nx
property float ny
property float nz
property int flags
element face 844
property list uchar int vertex_indices
property int flags
end_header
12.4106 7.95298 0 0.451405 -0.867927 -0.207208 0 
12.4106 7.95298 7.95298 0.591034 -0.561875 -0.578771 0 
11.8864 7.7037 7.7037 0.541084 -0.595035 -0.594274 0 
10.9102 10.0054 0 -0.354077 0.869752 -0.343745 0 
13.4018 8.55575 0 0.556706 -0.785701 -0.269726 0 
12.9165 8.23743 8.23743 0.666374 -0.528308 -0.526152 0 
12.1853 10.7652 10.7652 -0.740136 0.481307 0.46962 0 
12.1853 0 10.7652 -0.597811 -0.23764 0.765604 0 
12.5637 11.0857 11.0857 -0.805071 0.414048 0.424764 0 
12.5637 11.0857 0 -0.639248 0.731955 -0.235802 0 
11.7817 10.477 10.477 -0.694945 0.504295 0.51258 0 
11.7817 10.477 0 -0.508361 0.824914 -0.247156 0 
14.3017 9.28789 0 0.662351 -0.706452 -0.249434 0 
14.3017 9.28789 9.28789 0.797213 -0.418797 -0.434811 0 
13.8642 8.90645 8.90645 0.766014 -0.456601 -0.45248 0 
15.0935 10.1358 0 0.756255 -0.612723 -0.229453 0 
14.7121 9.6983 9.6983 0.843062 -0.383487 -0.377074 0 
8.99548 9.52049 21.4795 -0.073952 0.891135 -0.447672 0 
9.48757 9.58183 21.4182 -0.257233 0.684816 -0.681806 0 
9.48757 0 21.4182 -0.132554 -0.267087 -0.954512 0 
9.08006 7.01981 23.9802 0.120175 -0.701736 0.702228 0 
8.5 0 24 0.00640004 -0.378477 0.925588 0 
9.65742 0 23.9208 0.12951 -0.319432 0.938717 0 
8.99548 9.52049 31 -0.0864094 0.945273 0.314631 0 
8.5 7 24 -0.0305335 -0.447422 0.893801 0 
9.97291 9.6836 31 -0.23067 0.908253 0.349095 0 
7.34258 0 23.9208 -0.10778 -0.321563 0.940734 0 
9.08006 7.01981 31 0.0430915 -0.945543 0.322631 0 
7.34258 7.07917 23.9208 -0.214026 -0.690836 0.690607 0 
6.20673 0 23.6848 -0.242033 -0.226266 0.943517 0 
7.91994 7.01981 23.9802 -0.0611639 -0.891451 0.44897 0 
7.91994 7.01981 31 -0.0697344 -0.923746 0.376603 0 
6.77062 7.17778 31 -0.193768 -0.928976 0.31537 0 
11.3465 7.49078 23.5092 0.468393 -0.624573 0.624914 0 
10.7933 0 23.6848 0.2574 -0.309951 0.915246 0 
11.8864 0 23.2963 0.381779 -0.295709 0.875672 0 
10.7933 7.3152 23.6848 0.368365 -0.663325 0.651389 0 
10.2294 7.17778 23.8222 0.304131 -0.673566 0.673657 0 
11.3465 7.49078 31 0.29899 -0.903424 0.307294 0 
9.65742 7.07917 23.9208 0.190807 -0.696963 0.691256 0 
10.2294 7.17778 31 0.176747 -0.957186 0.229249 0 
5.11359 0 23.2963 -0.360945 -0.300352 0.882897 0 
6.20673 7.3152 23.6848 -0.389224 -0.651406 0.651287 0 
5.65352 7.49078 23.5092 -0.449056 -0.624658 0.638867 0 
5.11359 7.7037 23.2963 -0.541084 -0.595035 0.594274 0 
5.65352 7.49078 31 -0.32016 -0.897488 0.303336 0 
6.08983 10.0054 31 0.354078 0.869752 0.343745 0 
4.58945 7.95298 31 -0.451405 -0.867927 0.207208 0 
8.5 9.5 21.5 -0.0369553 0.447519 -0.893511 0 
8.5 0 21.5 0.00792986 -0.316118 -0.948687 0 
8.00453 9.52049 21.4795 0.145134 0.698569 -0.70067 0 
7.51243 0 21.4182 0.159209 -0.263807 -0.951346 0 
8.00453 9.52049 31 0.0530601 0.962022 0.267765 0 
7.51243 9.58183 21.4182 0.229678 0.690351 -0.686049 0 
7.02709 9.6836 21.3164 0.362926 0.656915 -0.660869 0 
7.02709 9.6836 31 0.211231 0.940742 0.265304 0 
6.5518 9.8251 21.1749 0.436742 0.640481 -0.631697 0 
5.64432 10.2232 20.7768 0.607745 0.56713 -0.555887 0 
5.64432 0 20.7768 0.461952 -0.249708 -0.851026 0 
5.21831 10.477 20.523 0.694945 0.504295 -0.51258 0 
6.08983 10.0054 20.9946 0.548312 0.588324 -0.59433 0 
6.5518 0 21.1749 0.30561 -0.344624 -0.887602 0 
6.77062 7.17778 23.8222 -0.281948 -0.673866 0.682942 0 
4.58945 7.95298 23.047 -0.591034 -0.561875 0.578771 0 
3.59822 8.55575 31 -0.556706 -0.785701 0.269726 0 
4.08354 8.23743 22.7626 -0.666374 -0.528308 0.526152 0 
12.9143 0 11.4363 -0.71819 -0.223985 0.658813 0 
13.8642 0 8.90645 0.592546 -0.265112 -0.760661 0 
13.4018 8.55575 8.55575 0.706439 -0.491737 -0.509057 0 
12.9165 0 8.23743 0.480588 -0.28383 -0.829745 0 
11.3557 0 10.2232 -0.461952 -0.249708 0.851026 0 
11.8864 0 7.7037 0.360945 -0.300352 -0.882897 0 
11.3557 10.2232 10.2232 -0.607745 0.56713 0.555886 0 
10.9102 10.0054 10.0054 -0.548312 0.588324 0.59433 0 
10.7933 7.3152 7.3152 0.389225 -0.651406 -0.651286 0 
11.3465 7.49078 7.49078 0.449057 -0.624658 -0.638866 0 
11.3465 7.49078 0 0.32016 -0.897488 -0.303336 0 
16.047 0 11.5894 0.868422 -0.147729 -0.473307 0 
16.047 11.5894 11.5894 0.94352 -0.239764 -0.228656 0 
16.5092 0 12.6535 0.917947 -0.190273 -0.348094 0 
15.7626 11.0835 11.0835 0.918643 -0.274027 -0.284613 0 
13.9946 0 13.0898 -0.88356 -0.265842 0.385552 0 
15.4442 10.5982 10.5982 0.90113 -0.310933 -0.302133 0 
15.4442 0 10.5982 0.783789 -0.226534 -0.578236 0 
15.0935 10.1358 10.1358 0.866764 -0.345786 -0.359379 0 
13.7768 12.6443 12.6443 -0.939679 0.233993 0.2495 0 
13.9946 13.0898 13.0898 -0.955105 0.212304 0.206644 0 
13.523 0 12.2183 -0.819555 -0.209686 0.533255 0 
14.7121 0 9.6983 0.694381 -0.245639 -0.676384 0 
13.2348 11.8147 11.8147 -0.884598 0.323112 0.33628 0 
12.9143 11.4363 11.4363 -0.838061 0.391018 0.38047 0 
13.2348 11.8147 0 -0.753458 0.61855 -0.222928 0 
15.7626 11.0835 0 0.836289 -0.506229 -0.210604 0 
16.2963 12.1136 0 0.900681 -0.389081 -0.193366 0 
16.2963 12.1136 12.1136 0.955914 -0.203914 -0.211298 0 
16.5092 12.6535 12.6535 0.972861 -0.170091 -0.156874 0 
14.1749 13.5518 0 -0.903933 0.336701 -0.2637 0 
16.6848 13.2067 0 0.95569 -0.265788 -0.126542 0 
13.4018 8.55575 22.4442 0.719238 -0.489729 0.492811 0 
12.9165 0 22.7626 0.510481 -0.199988 0.83631 0 
13.8642 0 22.0935 0.610851 -0.259608 0.747974 0 
12.9165 8.23743 22.7626 0.651991 -0.544758 0.527396 0 
13.4018 8.55575 31 0.537681 -0.797162 0.274649 0 
12.4106 7.95298 23.047 0.607066 -0.561217 0.562589 0 
12.4106 7.95298 31 0.421575 -0.858335 0.292464 0 
11.8864 7.7037 23.2963 0.523382 -0.610402 0.594543 0 
11.3557 0 20.7768 -0.425779 -0.338005 -0.839324 0 
10.9102 10.0054 20.9946 -0.52713 0.595726 -0.606007 0 
11.3557 10.2232 20.7768 -0.626473 0.554698 -0.547578 0 
9.97291 9.6836 21.3164 -0.337154 0.662311 -0.669082 0 
10.4482 0 21.1749 -0.288614 -0.26247 -0.920767 0 
10.4482 9.8251 21.1749 -0.460326 0.630204 -0.625254 0 
13.2348 11.8147 31 -0.771453 0.598189 0.216863 0 
12.9143 11.4363 19.5637 -0.848256 0.3804 -0.368452 0 
12.5637 11.0857 31 -0.660166 0.714734 0.230948 0 
12.9143 0 19.5637 -0.698657 -0.229495 -0.67765 0 
12.1853 10.7652 20.2348 -0.754236 0.469009 -0.45952 0 
12.5637 11.0857 19.9143 -0.793023 0.425086 -0.436368 0 
12.1853 0 20.2348 -0.575664 -0.241731 -0.781138 0 
14.3017 9.28789 31 0.644879 -0.720352 0.255391 0 
11.7817 10.477 20.523 -0.678604 0.513492 -0.525188 0 
11.7817 10.477 31 -0.531582 0.81112 0.243937 0 
10.9102 10.0054 31 -0.389405 0.885115 0.254823 0 
4.81472 10.7652 20.2348 0.740135 0.481307 -0.46962 0 
4.81472 0 20.2348 0.597811 -0.23764 -0.765604 0 
4.43631 11.0857 19.9143 0.805071 0.414048 -0.424764 0 
4.43631 11.0857 31 0.639248 0.731955 0.235802 0 
5.21831 10.477 31 0.508361 0.824914 0.247156 0 
2.6983 9.28789 31 -0.662351 -0.706452 0.249434 0 
2.6983 9.28789 21.7121 -0.797213 -0.418797 0.43481 0 
3.13575 8.90645 22.0935 -0.766014 -0.456601 0.452479 0 
1.90645 10.1358 31 -0.756255 -0.612723 0.229453 0 
2.28789 9.6983 21.3017 -0.843062 -0.383487 0.377074 0 
4.08566 0 19.5637 0.71819 -0.223985 -0.658812 0 
3.13575 0 22.0935 -0.592546 -0.265112 0.760661 0 
3.59822 8.55575 22.4442 -0.706438 -0.491738 0.509057 0 
4.08354 0 22.7626 -0.480588 -0.28383 0.829744 0 
10.4482 0 9.8251 -0.30561 -0.344624 0.887602 0 
10.7933 0 7.3152 0.242033 -0.226266 -0.943517 0 
9.65742 7.07917 7.07917 0.214026 -0.690836 -0.690607 0 
10.2294 7.17778 7.17778 0.281948 -0.673866 -0.682942 0 
10.2294 7.17778 0 0.193768 -0.928976 -0.31537 0 
8.00453 9.52049 9.52049 0.116388 0.701558 0.703044 0 
7.51243 0 9.58183 0.132555 -0.267087 0.954512 0 
8.5 9.5 9.5 0.0292086 0.707409 0.706201 0 
8.5 0 9.5 -0.00793022 -0.316118 0.948687 0 
8.00453 9.52049 0 0.0798362 0.960721 -0.265786 0 
8.99548 9.52049 9.52049 -0.145135 0.698568 0.70067 0 
8.99548 9.52049 0 -0.0705554 0.946028 -0.316311 0 
9.48757 0 9.58183 -0.15921 -0.263807 0.951345 0 
9.48757 9.58183 9.58183 -0.229679 0.690351 0.686049 0 
10.4482 9.8251 9.8251 -0.436741 0.640481 0.631697 0 
9.08006 7.01981 0 0.0697344 -0.923746 -0.376603 0 
9.97291 9.6836 9.6836 -0.362927 0.656915 0.660868 0 
9.97291 9.6836 0 -0.211231 0.940742 -0.265304 0 
7.51243 9.58183 9.58183 0.257234 0.684815 0.681805 0 
7.91994 7.01981 7.01981 -0.120175 -0.701736 -0.702228 0 
8.5 0 7 -0.00640019 -0.378477 -0.925588 0 
7.34258 0 7.07917 -0.129509 -0.319432 -0.938718 0 
8.5 7 7 0.0305335 -0.447422 -0.893801 0 
7.02709 9.6836 0 0.23067 0.908253 -0.349095 0 
9.65742 0 7.07917 0.107779 -0.321563 -0.940734 0 
7.91994 7.01981 0 -0.0430915 -0.945543 -0.322631 0 
9.08006 7.01981 7.01981 0.0611639 -0.891451 -0.44897 0 
5.65352 7.49078 7.49078 -0.468394 -0.624572 -0.624913 0 
6.20673 0 7.3152 -0.257401 -0.309951 -0.915246 0 
5.11359 0 7.7037 -0.381779 -0.295709 -0.875672 0 
6.20673 7.3152 7.3152 -0.368366 -0.663325 -0.651388 0 
6.77062 7.17778 7.17778 -0.304131 -0.673566 -0.673657 0 
5.65352 7.49078 0 -0.298991 -0.903424 -0.307294 0 
7.34258 7.07917 7.07917 -0.190806 -0.696963 -0.691256 0 
6.77062 7.17778 0 -0.176747 -0.957186 -0.229249 0 
14.3164 0 16.9729 -0.930801 -0.255381 -0.261515 0 
16.8222 0 17.2294 0.972239 -0.121242 0.200129 0 
16.5092 0 18.3465 0.926566 -0.185426 0.32725 0 
16.9802 0 16.0801 0.978769 -0.191627 0.0727322 0 
14.4795 0 15.9955 -0.987886 -0.13288 -0.0801484 0 
14.4795 15.0045 15.0045 -0.999555 0.0239581 0.0177674 0 
14.4795 15.0045 15.9955 -0.998742 0.0468269 -0.0179349 0 
16.9802 0 14.9199 0.990395 -0.121463 -0.0660719 0 
14.4795 0 15.0045 -0.973866 -0.209441 0.0878625 0 
14.4182 14.5124 14.5124 -0.994653 0.0626683 0.0820825 0 
14.3164 14.0271 14.0271 -0.984342 0.126025 0.123244 0 
14.3164 0 14.0271 -0.95315 -0.184843 0.239455 0 
16.8222 0 13.7706 0.959506 -0.175227 -0.220552 0 
14.1749 13.5518 13.5518 -0.975242 0.147312 0.164933 0 
13.523 12.2183 12.2183 -0.907792 0.300732 0.292358 0 
13.7768 12.6443 0 -0.847627 0.487505 -0.209443 0 
16.9208 14.3426 14.3426 0.99531 -0.0677321 -0.0690706 0 
16.9802 14.9199 14.9199 0.999144 -0.0386115 -0.0148485 0 
16.8222 13.7706 13.7706 0.99105 -0.101618 -0.0865604 0 
16.6848 13.2067 13.2067 0.980929 -0.135298 -0.139546 0 
16.9208 14.3426 0 0.977367 -0.132519 -0.164902 0 
13.523 0 18.7817 -0.80324 -0.216212 -0.55503 0 
13.2348 11.8147 19.1853 -0.876061 0.336154 -0.345712 0 
13.523 12.2183 18.7817 -0.914851 0.292614 -0.278254 0 
13.9946 0 17.9102 -0.886284 -0.202705 -0.416426 0 
13.7768 12.6443 18.3557 -0.933943 0.249182 -0.256241 0 
13.7768 12.6443 31 -0.846547 0.45605 0.274547 0 
15.0935 10.1358 20.8642 0.874249 -0.339461 0.347067 0 
14.7121 0 21.3017 0.710911 -0.239345 0.661301 0 
15.4442 0 20.4018 0.798125 -0.21985 0.560947 0 
14.7121 9.6983 21.3017 0.834413 -0.397097 0.38219 0 
15.0935 10.1358 31 0.740773 -0.62894 0.235984 0 
14.3017 9.28789 21.7121 0.807135 -0.414823 0.420065 0 
13.8642 8.90645 22.0935 0.754707 -0.472251 0.455408 0 
14.4182 14.5124 16.4876 -0.99311 0.0821774 -0.0835421 0 
14.3164 14.0271 16.9729 -0.986816 0.123345 -0.104783 0 
14.1749 13.5518 17.4482 -0.971773 0.164695 -0.168917 0 
16.047 0 19.4106 0.870535 -0.201765 0.448842 0 
13.9946 13.0898 17.9102 -0.959653 0.206956 -0.190357 0 
16.9802 14.9199 16.0801 0.999695 -0.0198356 0.0146865 0 
16.9208 14.3426 16.6574 0.996361 -0.0518117 0.0676751 0 
16.8222 13.7706 17.2294 0.989374 -0.104177 0.101418 0 
16.6848 13.2067 17.7933 0.98326 -0.121559 0.135734 0 
16.9208 14.3426 31 0.97349 -0.154789 0.1684 0 
16.6848 13.2067 31 0.940961 -0.285096 0.182517 0 
16.5092 12.6535 18.3465 0.969836 -0.175238 0.169442 0 
16.2963 12.1136 18.8864 0.959686 -0.19256 0.204752 0 
16.2963 12.1136 31 0.890582 -0.409226 0.19849 0 
16.047 11.5894 19.4106 0.93894 -0.247755 0.238765 0 
15.7626 11.0835 19.9165 0.924103 -0.265184 0.275156 0 
15.4442 10.5982 20.4018 0.894705 -0.321843 0.309709 0 
15.7626 11.0835 31 0.833288 -0.530949 0.154026 0 
4.08566 11.4363 19.5637 0.838062 0.391018 -0.38047 0 
3.76516 11.8147 19.1853 0.884599 0.323112 -0.33628 0 
3.76516 11.8147 31 0.753458 0.61855 0.222928 0 
1.55576 0 20.4018 -0.783789 -0.226534 0.578236 0 
1.90645 10.1358 20.8642 -0.866764 -0.345786 0.359379 0 
1.55576 10.5982 20.4018 -0.901131 -0.310933 0.302133 0 
1.23744 11.0835 31 -0.836289 -0.506228 0.210604 0 
3.22316 12.6443 18.3557 0.939679 0.233993 -0.249501 0 
3.477 0 18.7817 0.819555 -0.209686 -0.533255 0 
3.00536 0 17.9102 0.88356 -0.265842 -0.385552 0 
2.28789 0 21.3017 -0.694382 -0.245639 0.676384 0 
3.477 12.2183 18.7817 0.907792 0.300733 -0.292358 0 
3.22316 12.6443 31 0.847627 0.487505 0.209443 0 
1.23744 11.0835 19.9165 -0.918643 -0.274027 0.284612 0 
0.703705 12.1136 31 -0.900681 -0.389081 0.193366 0 
0.952976 11.5894 19.4106 -0.94352 -0.239764 0.228657 0 
3.59822 8.55575 8.55575 -0.719238 -0.489729 -0.492811 0 
4.08354 0 8.23743 -0.51048 -0.199988 -0.83631 0 
3.13575 0 8.90645 -0.610851 -0.259608 -0.747974 0 
4.08354 8.23743 8.23743 -0.651991 -0.544758 -0.527396 0 
3.59822 8.55575 0 -0.53768 -0.797162 -0.274649 0 
4.58945 7.95298 7.95298 -0.607066 -0.561217 -0.562589 0 
4.58945 7.95298 0 -0.421575 -0.858335 -0.292464 0 
5.11359 7.7037 7.7037 -0.523381 -0.610402 -0.594543 0 
5.64432 0 10.2232 0.425779 -0.338005 0.839324 0 
6.08983 10.0054 10.0054 0.52713 0.595726 0.606007 0 
5.64432 10.2232 10.2232 0.626473 0.554698 0.547578 0 
7.02709 9.6836 9.6836 0.337154 0.662311 0.669082 0 
6.5518 0 9.8251 0.288614 -0.26247 0.920767 0 
6.5518 9.8251 9.8251 0.460326 0.630204 0.625254 0 
4.08566 0 11.4363 0.698658 -0.229495 0.67765 0 
4.43631 11.0857 11.0857 0.793023 0.425086 0.436367 0 
4.08566 11.4363 11.4363 0.848256 0.3804 0.368452 0 
3.76516 11.8147 0 0.771453 0.598189 -0.216863 0 
4.43631 11.0857 0 0.660166 0.714734 -0.230948 0 
2.6983 9.28789 0 -0.644879 -0.720352 -0.255391 0 
4.81472 10.7652 10.7652 0.754237 0.469009 0.45952 0 
4.81472 0 10.7652 0.575664 -0.241731 0.781138 0 
5.21831 10.477 10.477 0.678604 0.513492 0.525188 0 
5.21831 10.477 0 0.531582 0.81112 -0.243937 0 
6.08983 10.0054 0 0.389405 0.885115 -0.254823 0 
3.76516 11.8147 11.8147 0.876061 0.336154 0.345712 0 
3.477 12.2183 12.2183 0.91485 0.292615 0.278254 0 
1.90645 10.1358 10.1358 -0.874249 -0.33946 -0.347067 0 
2.28789 0 9.6983 -0.710911 -0.239345 -0.661301 0 
1.55576 0 10.5982 -0.798126 -0.21985 -0.560947 0 
3.22316 12.6443 0 0.846547 0.45605 -0.274547 0 
2.28789 9.6983 9.6983 -0.834413 -0.397097 -0.38219 0 
1.90645 10.1358 0 -0.740773 -0.62894 -0.235984 0 
2.6983 9.28789 9.28789 -0.807136 -0.414823 -0.420065 0 
3.13575 8.90645 8.90645 -0.754707 -0.472251 -0.455408 0 
14.5 15.5 15.5 -0.998361 -0.0572233 0 0 
14.5 15.5 0 -0.984849 0.0255771 -0.171515 0 
14.4182 14.5124 0 -0.965292 0.186888 -0.182442 0 
17 15.5 0 0.982823 -0.00580779 -0.18446 0 
16.9208 16.6574 0 0.988274 0.122085 -0.0917077 0 
17 15.5 15.5 0.998886 0.0471879 0 0 
16.9208 16.6574 31 0.987161 0.145524 0.0658504 0 
17 15.5 31 0.98752 -0.0209337 0.156097 0 
10.9102 20.9946 31 -0.373708 -0.920235 0.116229 0 
13.4018 22.4442 31 0.55626 0.827452 0.0767909 0 
12.4106 23.047 31 0.439067 0.896834 0.0539408 0 
11.7817 20.523 31 -0.521739 -0.848882 0.0847765 0 
14.3017 21.7121 31 0.663759 0.74401 0.0766394 0 
12.5637 19.9143 31 -0.65433 -0.751411 0.085051 0 
15.0935 20.8642 31 0.758892 0.646704 0.0765298 0 
13.2348 19.1853 31 -0.769073 -0.633452 0.0852379 0 
15.7626 19.9165 31 0.839887 0.537348 0.0764617 0 
13.7768 18.3557 31 -0.862838 -0.498224 0.0853369 0 
16.2963 18.8864 31 0.905236 0.417979 0.0764356 0 
14.1749 17.4482 31 -0.930143 -0.348313 0.116243 0 
16.6848 17.7933 31 0.955128 0.291252 0.0538844 0 
14.4182 16.4876 31 -0.98173 -0.17579 0.0728235 0 
14.5 15.5 31 -0.979205 0.00717773 0.202746 0 
14.4182 14.5124 31 -0.97077 0.160139 0.178775 0 
14.1749 13.5518 31 -0.928986 0.316942 0.191136 0 
14.4182 16.4876 0 -0.983776 -0.147452 -0.102186 0 
16.6848 17.7933 0 0.965982 0.247052 -0.0764513 0 
14.1749 17.4482 0 -0.950939 -0.297372 -0.0853478 0 
16.2963 18.8864 0 0.923345 0.376286 -0.0764356 0 
13.7768 18.3557 0 -0.886229 -0.448422 -0.116255 0 
15.7626 19.9165 0 0.864785 0.499248 -0.0538346 0 
15.0935 20.8642 0 0.787568 0.611435 -0.0767099 0 
13.2348 19.1853 0 -0.802888 -0.59005 -0.0849246 0 
14.3017 21.7121 0 0.696982 0.712988 -0.0765794 0 
12.5637 19.9143 0 -0.694804 -0.71414 -0.0851554 0 
13.4018 22.4442 0 0.59341 0.801258 -0.0764904 0 
11.7817 20.523 0 -0.567776 -0.818752 -0.0852984 0 
12.4106 23.047 0 0.478779 0.874601 -0.0764434 0 
10.9102 20.9946 0 -0.425269 -0.901033 -0.0853534 0 
9.97291 21.3164 0 -0.270312 -0.955727 -0.116265 0 
11.3465 23.5092 0 0.355229 0.931649 -0.0764383 0 
7.02709 21.3164 31 0.270312 -0.955727 0.116265 0 
6.77062 23.8222 31 -0.225394 0.972782 0.0537914 0 
5.65352 23.5092 31 -0.355229 0.931649 0.0764382 0 
7.91994 23.9802 31 -0.0906988 0.992922 0.0766734 0 
7.02709 21.3164 0 0.217829 -0.972251 -0.0853203 0 
8.00453 21.4795 31 0.109664 -0.990328 0.0849906 0 
9.08006 23.9802 31 0.0453498 0.996034 0.0765532 0 
8.00453 21.4795 0 0.0548311 -0.994854 -0.0851995 0 
8.99548 21.4795 31 -0.0548311 -0.994854 0.0851995 0 
10.2294 23.8222 31 0.180555 0.980587 0.0764748 0 
8.99548 21.4795 0 -0.109664 -0.990328 -0.0849906 0 
9.97291 21.3164 31 -0.217829 -0.972251 0.0853203 0 
11.3465 23.5092 31 0.312397 0.946871 0.0764383 0 
0.490783 0 18.3465 -0.917947 -0.190273 0.348095 0 
0.703705 12.1136 18.8864 -0.955914 -0.203914 0.211298 0 
0.952976 0 19.4106 -0.868422 -0.147729 0.473307 0 
3.00536 13.0898 17.9102 0.955105 0.212304 -0.206644 0 
2.8251 13.5518 17.4482 0.975242 0.147312 -0.164932 0 
2.8251 13.5518 31 0.903933 0.3367 0.2637 0 
0.490783 12.6535 18.3465 -0.972861 -0.170092 0.156874 0 
0.315203 13.2067 31 -0.95569 -0.265787 0.126542 0 
0.315203 13.2067 17.7933 -0.980929 -0.135298 0.139546 0 
0.0791699 14.3426 31 -0.977367 -0.132519 0.164902 0 
0.0791699 14.3426 16.6574 -0.99531 -0.067732 0.0690705 0 
0.177786 13.7706 17.2294 -0.991051 -0.101618 0.0865602 0 
0.0198158 0 16.0801 -0.982842 -0.162028 0.0881382 0 
0.177786 0 17.2294 -0.959506 -0.175227 0.220552 0 
3.477 0 12.2183 0.80324 -0.216212 0.55503 0 
3.00536 0 13.0898 0.886284 -0.202705 0.416427 0 
3.22316 12.6443 12.6443 0.933942 0.249183 0.256241 0 
2.6836 0 14.0271 0.930801 -0.255381 0.261515 0 
2.8251 13.5518 13.5518 0.971773 0.164694 0.168916 0 
2.6836 14.0271 14.0271 0.986816 0.123346 0.104784 0 
0.952976 0 11.5894 -0.870535 -0.201765 -0.448842 0 
3.00536 13.0898 13.0898 0.959653 0.206955 0.190356 0 
0.490783 0 12.6535 -0.926566 -0.185426 -0.32725 0 
0.703705 12.1136 12.1136 -0.959686 -0.19256 -0.204752 0 
0.952976 11.5894 11.5894 -0.93894 -0.247755 -0.238765 0 
1.23744 11.0835 11.0835 -0.924103 -0.265184 -0.275156 0 
0.703705 12.1136 0 -0.890582 -0.409226 -0.19849 0 
2.8251 13.5518 0 0.928986 0.316942 -0.191136 0 
1.55576 10.5982 10.5982 -0.894705 -0.321843 -0.309708 0 
1.23744 11.0835 0 -0.833289 -0.530948 -0.154026 0 
10.2294 23.8222 0 0.225394 0.972782 -0.0537914 0 
9.08006 23.9802 0 0.0906988 0.992922 -0.0766734 0 
7.91994 23.9802 0 -0.0453498 0.996034 -0.0765532 0 
6.77062 23.8222 0 -0.180555 0.980587 -0.0764748 0 
6.08983 20.9946 0 0.373708 -0.920235 -0.116229 0 
4.58945 23.047 0 -0.439067 0.896834 -0.0539408 0 
5.65352 23.5092 0 -0.312397 0.946871 -0.0764382 0 
3.22316 18.3557 0 0.862838 -0.498224 -0.0853368 0 
3.22316 18.3557 31 0.886229 -0.448422 0.116255 0 
2.8251 17.4482 0 0.930143 -0.348312 -0.116243 0 
1.90645 20.8642 31 -0.787568 0.611435 0.07671 0 
1.23744 19.9165 31 -0.864785 0.499248 0.0538346 0 
3.76516 19.1853 31 0.802887 -0.590051 0.0849246 0 
3.76516 19.1853 0 0.769072 -0.633453 -0.0852379 0 
2.6983 21.7121 31 -0.696982 0.712988 0.0765794 0 
4.43631 19.9143 31 0.694804 -0.71414 0.0851554 0 
4.43631 19.9143 0 0.65433 -0.751411 -0.085051 0 
3.59822 22.4442 31 -0.59341 0.801258 0.0764904 0 
5.21831 20.523 31 0.567776 -0.818752 0.0852984 0 
5.21831 20.523 0 0.521739 -0.848882 -0.0847764 0 
4.58945 23.047 31 -0.478779 0.874601 0.0764434 0 
6.08983 20.9946 31 0.425269 -0.901033 0.0853534 0 
3.59822 22.4442 0 -0.55626 0.827452 -0.0767909 0 
2.6983 21.7121 0 -0.663759 0.74401 -0.0766394 0 
1.90645 20.8642 0 -0.758892 0.646704 -0.0765298 0 
1.23744 19.9165 0 -0.839888 0.537347 -0.0764617 0 
0.703705 18.8864 0 -0.905236 0.417979 -0.0764356 0 
0.703705 18.8864 31 -0.923345 0.376286 0.0764356 0 
0.315203 17.7933 0 -0.955128 0.291252 -0.0538844 0 
0.315203 17.7933 31 -0.965982 0.247052 0.0764513 0 
0.0791699 16.6574 0 -0.987161 0.145524 -0.0658503 0 
2.52049 0 15.0045 0.978438 -0.176859 0.106676 0 
2.58183 14.5124 14.5124 0.99311 0.0821779 0.0835427 0 
2.52049 15.0045 15.0045 0.999236 0.0364914 0.0139766 0 
2.52049 15.0045 15.9955 0.99914 0.0333057 -0.0247001 0 
2.5 15.5 15.5 0.998361 -0.057223 0 0 
2.52049 0 15.9955 0.986559 -0.150683 -0.0632133 0 
2.58183 14.5124 16.4876 0.994653 0.0626684 -0.0820831 0 
2.6836 14.0271 16.9729 0.984342 0.126025 -0.123244 0 
2.6836 0 16.9729 0.95315 -0.184843 -0.239455 0 
2.58183 14.5124 31 0.965292 0.186888 0.182442 0 
0.0198158 14.9199 16.0801 -0.99948 -0.0301026 0.0115759 0 
0 15.5 31 -0.982823 -0.00580853 0.18446 0 
0.0791699 16.6574 31 -0.988274 0.122086 0.0917077 0 
-0 15.5 15.5 -0.998886 0.0471882 0 0 
2.5 15.5 31 0.98485 0.0255768 0.171515 0 
2.58183 16.4876 31 0.983776 -0.147452 0.102186 0 
2.58183 16.4876 0 0.98173 -0.17579 -0.0728235 0 
2.8251 17.4482 31 0.950939 -0.297372 0.0853478 0 
0.177786 0 13.7706 -0.972239 -0.121242 -0.200129 0 
0.0198158 0 14.9199 -0.989122 -0.137522 -0.0521966 0 
0.0198158 14.9199 14.9199 -0.999413 -0.0275376 -0.0203884 0 
0.0791699 14.3426 14.3426 -0.996361 -0.051812 -0.0676748 0 
0.177786 13.7706 13.7706 -0.989374 -0.104176 -0.101418 0 
0.315203 13.2067 13.2067 -0.98326 -0.121559 -0.135734 0 
2.5 15.5 0 0.979205 0.00717727 -0.202746 0 
2.58183 14.5124 0 0.97077 0.16014 -0.178775 0 
0.0791699 14.3426 0 -0.97349 -0.154788 -0.1684 0 
0.315203 13.2067 0 -0.940961 -0.285096 -0.182517 0 
0.490783 12.6535 12.6535 -0.969836 -0.175238 -0.169442 0 
0 15.5 0 -0.98752 -0.0209341 -0.156097 0 
3 0 1 2 0 
3 3 4 0 0 
3 0 5 1 0 
3 4 5 0 0 
3 6 7 8 0 
3 9 6 8 0 
3 10 7 6 0 
3 10 6 9 0 
3 9 11 10 0 
3 9 12 11 0 
3 12 13 14 0 
3 9 15 12 0 
3 12 16 13 0 
3 15 16 12 0 
3 17 18 19 0 
3 20 21 22 0 
3 23 18 17 0 
3 24 21 20 0 
3 25 18 23 0 
3 24 26 21 0 
3 27 24 20 0 
3 23 27 25 0 
3 26 28 29 0 
3 30 26 24 0 
3 27 30 24 0 
3 23 31 27 0 
3 30 28 26 0 
3 31 30 27 0 
3 31 28 30 0 
3 32 28 31 0 
3 33 34 35 0 
3 36 34 33 0 
3 37 34 36 0 
3 38 36 33 0 
3 37 22 34 0 
3 38 37 36 0 
3 39 22 37 0 
3 40 37 38 0 
3 40 39 37 0 
3 20 22 39 0 
3 25 40 38 0 
3 20 39 40 0 
3 25 27 40 0 
3 40 27 20 0 
3 41 42 43 0 
3 41 43 44 0 
3 45 43 42 0 
3 46 47 45 0 
3 45 44 43 0 
3 47 44 45 0 
3 48 19 49 0 
3 17 19 48 0 
3 50 49 51 0 
3 23 17 52 0 
3 48 49 50 0 
3 52 17 48 0 
3 50 51 53 0 
3 52 31 23 0 
3 52 48 50 0 
3 53 51 54 0 
3 50 53 55 0 
3 52 32 31 0 
3 55 52 50 0 
3 46 54 56 0 
3 55 53 54 0 
3 55 32 52 0 
3 55 54 46 0 
3 55 45 32 0 
3 46 45 55 0 
3 57 58 59 0 
3 60 58 57 0 
3 60 61 58 0 
3 61 41 58 0 
3 61 29 41 0 
3 29 42 41 0 
3 28 62 29 0 
3 29 62 42 0 
3 32 62 28 0 
3 32 42 62 0 
3 45 42 32 0 
3 47 63 44 0 
3 46 64 47 0 
3 47 65 63 0 
3 64 65 47 0 
3 8 7 66 0 
3 67 5 68 0 
3 7 67 66 0 
3 69 5 67 0 
3 7 69 67 0 
3 10 70 7 0 
3 69 1 5 0 
3 70 69 7 0 
3 2 1 69 0 
3 70 71 69 0 
3 69 71 2 0 
3 72 70 10 0 
3 11 72 10 0 
3 11 73 72 0 
3 3 73 11 0 
3 11 4 3 0 
3 67 68 14 0 
3 4 68 5 0 
3 11 12 4 0 
3 4 14 68 0 
3 12 14 4 0 
3 71 74 75 0 
3 71 75 2 0 
3 76 75 74 0 
3 3 0 76 0 
3 76 2 75 0 
3 0 2 76 0 
3 77 78 79 0 
3 77 80 78 0 
3 81 77 79 0 
3 82 80 77 0 
3 81 83 77 0 
3 83 84 82 0 
3 77 83 82 0 
3 85 81 86 0 
3 85 87 81 0 
3 83 16 84 0 
3 87 83 81 0 
3 88 16 83 0 
3 87 88 83 0 
3 89 66 87 0 
3 88 13 16 0 
3 66 88 87 0 
3 14 13 88 0 
3 66 67 88 0 
3 88 67 14 0 
3 90 66 89 0 
3 8 66 90 0 
3 91 90 89 0 
3 91 8 90 0 
3 9 8 91 0 
3 91 15 9 0 
3 15 84 16 0 
3 91 92 15 0 
3 15 82 84 0 
3 92 82 15 0 
3 92 80 82 0 
3 92 78 80 0 
3 93 78 92 0 
3 79 78 94 0 
3 79 94 95 0 
3 93 94 78 0 
3 96 97 93 0 
3 93 95 94 0 
3 97 95 93 0 
3 98 99 100 0 
3 101 99 98 0 
3 102 101 98 0 
3 103 99 101 0 
3 102 103 101 0 
3 103 35 99 0 
3 104 103 102 0 
3 105 35 103 0 
3 104 105 103 0 
3 33 35 105 0 
3 33 105 104 0 
3 104 38 33 0 
3 54 61 56 0 
3 26 29 61 0 
3 54 51 61 0 
3 51 26 61 0 
3 51 21 26 0 
3 49 21 51 0 
3 49 22 21 0 
3 19 22 49 0 
3 106 107 108 0 
3 18 109 110 0 
3 19 34 22 0 
3 19 18 110 0 
3 106 111 107 0 
3 110 109 111 0 
3 110 34 19 0 
3 110 111 106 0 
3 106 99 35 0 
3 110 35 34 0 
3 106 35 110 0 
3 112 113 114 0 
3 115 116 117 0 
3 114 113 117 0 
3 118 116 115 0 
3 114 119 112 0 
3 114 117 116 0 
3 118 120 116 0 
3 114 102 119 0 
3 114 116 121 0 
3 108 120 118 0 
3 121 116 120 0 
3 121 102 114 0 
3 121 120 108 0 
3 25 109 18 0 
3 122 108 107 0 
3 121 104 102 0 
3 121 108 122 0 
3 25 111 109 0 
3 122 107 111 0 
3 122 104 121 0 
3 122 111 25 0 
3 122 38 104 0 
3 25 38 122 0 
3 123 124 125 0 
3 59 124 123 0 
3 126 123 125 0 
3 126 59 123 0 
3 127 59 126 0 
3 126 128 127 0 
3 128 129 130 0 
3 126 131 128 0 
3 128 132 129 0 
3 131 132 128 0 
3 125 124 133 0 
3 134 65 135 0 
3 124 134 133 0 
3 136 65 134 0 
3 124 136 134 0 
3 59 58 124 0 
3 136 63 65 0 
3 58 136 124 0 
3 44 63 136 0 
3 58 41 136 0 
3 136 41 44 0 
3 56 61 60 0 
3 127 57 59 0 
3 46 56 60 0 
3 60 57 127 0 
3 127 46 60 0 
3 127 64 46 0 
3 134 135 130 0 
3 64 135 65 0 
3 127 128 64 0 
3 64 130 135 0 
3 128 130 64 0 
3 73 70 72 0 
3 73 137 70 0 
3 137 71 70 0 
3 137 138 71 0 
3 138 74 71 0 
3 139 140 138 0 
3 138 140 74 0 
3 141 140 139 0 
3 141 74 140 0 
3 76 74 141 0 
3 142 143 144 0 
3 144 143 145 0 
3 146 142 144 0 
3 144 145 147 0 
3 146 144 148 0 
3 147 149 150 0 
3 151 137 73 0 
3 148 152 146 0 
3 148 144 147 0 
3 150 149 153 0 
3 154 147 150 0 
3 3 151 73 0 
3 148 141 152 0 
3 148 147 154 0 
3 154 150 153 0 
3 153 151 3 0 
3 154 141 148 0 
3 3 154 153 0 
3 154 76 141 0 
3 3 76 154 0 
3 142 155 143 0 
3 156 157 158 0 
3 146 155 142 0 
3 159 157 156 0 
3 160 155 146 0 
3 159 161 157 0 
3 162 159 156 0 
3 146 162 160 0 
3 161 139 138 0 
3 163 161 159 0 
3 162 163 159 0 
3 146 152 162 0 
3 163 139 161 0 
3 152 163 162 0 
3 152 139 163 0 
3 141 139 152 0 
3 164 165 166 0 
3 167 165 164 0 
3 168 165 167 0 
3 169 167 164 0 
3 168 158 165 0 
3 169 168 167 0 
3 170 158 168 0 
3 171 168 169 0 
3 171 170 168 0 
3 156 158 170 0 
3 160 171 169 0 
3 156 170 171 0 
3 160 162 171 0 
3 171 162 156 0 
3 172 173 174 0 
3 172 175 173 0 
3 176 175 172 0 
3 177 176 178 0 
3 176 179 175 0 
3 177 180 176 0 
3 180 179 176 0 
3 181 180 177 0 
3 182 183 181 0 
3 180 184 179 0 
3 181 183 180 0 
3 185 183 182 0 
3 183 184 180 0 
3 185 81 183 0 
3 183 79 184 0 
3 81 79 183 0 
3 86 81 185 0 
3 89 87 186 0 
3 96 86 185 0 
3 186 87 85 0 
3 89 186 187 0 
3 187 91 89 0 
3 96 85 86 0 
3 187 186 85 0 
3 187 92 91 0 
3 187 85 96 0 
3 187 93 92 0 
3 96 93 187 0 
3 179 188 189 0 
3 179 190 188 0 
3 184 190 179 0 
3 184 191 190 0 
3 95 191 184 0 
3 184 79 95 0 
3 97 191 95 0 
3 96 192 97 0 
3 192 188 190 0 
3 97 190 191 0 
3 192 190 97 0 
3 193 194 195 0 
3 112 194 113 0 
3 196 195 197 0 
3 112 195 194 0 
3 198 197 195 0 
3 199 200 201 0 
3 198 195 112 0 
3 202 200 199 0 
3 203 202 199 0 
3 112 203 198 0 
3 204 200 202 0 
3 203 204 202 0 
3 112 119 203 0 
3 204 100 200 0 
3 119 204 203 0 
3 205 100 204 0 
3 119 205 204 0 
3 98 100 205 0 
3 98 205 119 0 
3 119 102 98 0 
3 106 100 99 0 
3 118 106 108 0 
3 118 100 106 0 
3 118 200 100 0 
3 176 206 178 0 
3 115 200 118 0 
3 115 117 113 0 
3 113 194 193 0 
3 176 207 206 0 
3 115 201 200 0 
3 193 115 113 0 
3 172 207 176 0 
3 193 201 115 0 
3 172 208 207 0 
3 193 209 201 0 
3 193 195 196 0 
3 196 197 210 0 
3 210 208 172 0 
3 196 209 193 0 
3 172 196 210 0 
3 196 174 209 0 
3 172 174 196 0 
3 211 179 189 0 
3 211 175 179 0 
3 212 175 211 0 
3 212 173 175 0 
3 213 173 212 0 
3 214 173 213 0 
3 215 214 213 0 
3 214 174 173 0 
3 216 214 215 0 
3 217 174 214 0 
3 216 217 214 0 
3 218 174 217 0 
3 218 217 216 0 
3 216 219 218 0 
3 218 209 174 0 
3 220 209 218 0 
3 221 209 220 0 
3 219 220 218 0 
3 221 201 209 0 
3 219 221 220 0 
3 222 201 221 0 
3 223 221 219 0 
3 223 222 221 0 
3 199 201 222 0 
3 198 223 219 0 
3 199 222 223 0 
3 198 203 223 0 
3 223 203 199 0 
3 224 133 225 0 
3 226 224 225 0 
3 125 133 224 0 
3 125 224 226 0 
3 226 126 125 0 
3 226 131 126 0 
3 227 228 229 0 
3 131 228 132 0 
3 226 230 131 0 
3 131 229 228 0 
3 230 229 131 0 
3 231 232 233 0 
3 227 132 228 0 
3 232 227 233 0 
3 234 132 227 0 
3 232 234 227 0 
3 225 133 232 0 
3 234 129 132 0 
3 133 234 232 0 
3 130 129 234 0 
3 133 134 234 0 
3 234 134 130 0 
3 235 232 231 0 
3 225 232 235 0 
3 236 235 231 0 
3 236 225 235 0 
3 226 225 236 0 
3 236 230 226 0 
3 230 237 229 0 
3 236 238 230 0 
3 230 239 237 0 
3 238 239 230 0 
3 240 241 242 0 
3 243 241 240 0 
3 244 243 240 0 
3 245 241 243 0 
3 244 245 243 0 
3 245 166 241 0 
3 246 245 244 0 
3 247 166 245 0 
3 246 247 245 0 
3 164 166 247 0 
3 164 247 246 0 
3 246 169 164 0 
3 153 137 151 0 
3 161 138 137 0 
3 153 149 137 0 
3 149 161 137 0 
3 149 157 161 0 
3 147 145 149 0 
3 145 157 149 0 
3 145 158 157 0 
3 143 158 145 0 
3 248 249 250 0 
3 155 251 252 0 
3 143 165 158 0 
3 143 155 252 0 
3 248 253 249 0 
3 252 251 253 0 
3 252 165 143 0 
3 252 253 248 0 
3 248 241 166 0 
3 252 166 165 0 
3 248 166 252 0 
3 254 255 256 0 
3 257 256 258 0 
3 258 256 255 0 
3 258 259 257 0 
3 258 255 260 0 
3 261 262 260 0 
3 258 244 259 0 
3 258 260 263 0 
3 250 262 261 0 
3 263 260 262 0 
3 263 244 258 0 
3 263 262 250 0 
3 160 251 155 0 
3 264 250 249 0 
3 263 246 244 0 
3 263 250 264 0 
3 160 253 251 0 
3 264 249 253 0 
3 264 246 263 0 
3 264 253 160 0 
3 264 169 246 0 
3 160 169 264 0 
3 257 265 256 0 
3 257 266 265 0 
3 267 268 269 0 
3 270 266 257 0 
3 271 268 267 0 
3 272 271 267 0 
3 257 272 270 0 
3 273 268 271 0 
3 272 273 271 0 
3 257 259 272 0 
3 273 242 268 0 
3 259 273 272 0 
3 274 242 273 0 
3 259 274 273 0 
3 240 242 274 0 
3 240 274 259 0 
3 259 244 240 0 
3 178 275 177 0 
3 276 177 275 0 
3 277 185 182 0 
3 277 182 181 0 
3 181 177 276 0 
3 96 185 277 0 
3 276 277 181 0 
3 277 192 96 0 
3 276 278 277 0 
3 192 189 188 0 
3 277 278 192 0 
3 276 279 278 0 
3 278 189 192 0 
3 279 280 278 0 
3 278 280 189 0 
3 279 281 280 0 
3 189 280 211 0 
3 282 280 281 0 
3 282 211 280 0 
3 212 211 282 0 
3 215 213 212 0 
3 282 215 212 0 
3 283 284 285 0 
3 286 284 283 0 
3 286 287 284 0 
3 288 287 286 0 
3 288 289 287 0 
3 290 289 288 0 
3 290 291 289 0 
3 292 291 290 0 
3 292 293 291 0 
3 294 293 292 0 
3 294 295 293 0 
3 281 295 294 0 
3 296 281 294 0 
3 296 282 281 0 
3 296 275 297 0 
3 297 282 296 0 
3 297 275 178 0 
3 297 215 282 0 
3 297 178 298 0 
3 298 178 206 0 
3 298 215 297 0 
3 298 206 207 0 
3 299 207 208 0 
3 298 216 215 0 
3 298 207 299 0 
3 198 210 197 0 
3 299 208 210 0 
3 299 216 298 0 
3 299 210 198 0 
3 299 219 216 0 
3 198 219 299 0 
3 300 279 276 0 
3 276 275 300 0 
3 300 301 279 0 
3 300 275 296 0 
3 302 301 300 0 
3 300 296 302 0 
3 302 303 301 0 
3 302 296 294 0 
3 304 303 302 0 
3 302 294 304 0 
3 304 305 303 0 
3 304 294 292 0 
3 306 305 304 0 
3 304 292 307 0 
3 307 306 304 0 
3 307 292 290 0 
3 307 308 306 0 
3 307 290 309 0 
3 309 308 307 0 
3 309 290 288 0 
3 309 310 308 0 
3 309 288 311 0 
3 311 310 309 0 
3 311 288 286 0 
3 311 312 310 0 
3 311 286 313 0 
3 313 286 283 0 
3 313 312 311 0 
3 313 283 314 0 
3 313 315 312 0 
3 314 315 313 0 
3 316 317 318 0 
3 316 319 317 0 
3 320 321 316 0 
3 321 319 316 0 
3 321 322 319 0 
3 323 324 321 0 
3 324 322 321 0 
3 324 325 322 0 
3 326 327 324 0 
3 327 325 324 0 
3 314 283 327 0 
3 283 285 328 0 
3 327 328 325 0 
3 283 328 327 0 
3 329 239 330 0 
3 331 239 329 0 
3 331 237 239 0 
3 229 237 331 0 
3 233 227 331 0 
3 331 227 229 0 
3 332 233 333 0 
3 334 332 333 0 
3 231 233 332 0 
3 231 332 334 0 
3 334 236 231 0 
3 334 238 236 0 
3 329 330 335 0 
3 238 330 239 0 
3 334 336 238 0 
3 238 335 330 0 
3 336 335 238 0 
3 336 337 335 0 
3 338 336 334 0 
3 338 339 340 0 
3 336 340 337 0 
3 338 340 336 0 
3 341 340 339 0 
3 342 340 341 0 
3 342 337 340 0 
3 335 337 342 0 
3 342 329 335 0 
3 248 242 241 0 
3 261 248 250 0 
3 261 242 248 0 
3 254 260 255 0 
3 261 268 242 0 
3 261 260 254 0 
3 254 268 261 0 
3 254 269 268 0 
3 343 254 256 0 
3 256 265 343 0 
3 343 269 254 0 
3 344 266 345 0 
3 343 265 266 0 
3 346 347 348 0 
3 343 349 269 0 
3 343 266 344 0 
3 350 347 346 0 
3 344 349 343 0 
3 346 344 350 0 
3 344 351 349 0 
3 346 351 344 0 
3 352 349 351 0 
3 353 349 352 0 
3 344 345 350 0 
3 270 345 266 0 
3 354 349 353 0 
3 355 353 352 0 
3 270 350 345 0 
3 354 269 349 0 
3 355 354 353 0 
3 356 350 270 0 
3 357 269 354 0 
3 358 354 355 0 
3 270 355 356 0 
3 358 357 354 0 
3 267 269 357 0 
3 270 358 355 0 
3 267 357 358 0 
3 272 358 270 0 
3 358 272 267 0 
3 314 359 315 0 
3 314 360 359 0 
3 314 327 326 0 
3 326 360 314 0 
3 326 361 360 0 
3 326 324 323 0 
3 323 361 326 0 
3 323 362 361 0 
3 323 321 320 0 
3 320 362 323 0 
3 320 316 363 0 
3 363 364 365 0 
3 320 365 362 0 
3 363 365 320 0 
3 366 367 368 0 
3 367 369 370 0 
3 366 371 367 0 
3 371 369 367 0 
3 372 371 366 0 
3 371 373 369 0 
3 372 374 371 0 
3 374 373 371 0 
3 375 374 372 0 
3 374 376 373 0 
3 375 377 374 0 
3 377 376 374 0 
3 378 377 375 0 
3 377 379 376 0 
3 378 380 377 0 
3 363 380 378 0 
3 380 379 377 0 
3 363 316 380 0 
3 380 318 379 0 
3 316 318 380 0 
3 301 281 279 0 
3 301 295 281 0 
3 303 295 301 0 
3 303 293 295 0 
3 305 293 303 0 
3 305 291 293 0 
3 306 291 305 0 
3 306 289 291 0 
3 308 289 306 0 
3 308 287 289 0 
3 310 287 308 0 
3 310 284 287 0 
3 312 284 310 0 
3 312 285 284 0 
3 315 285 312 0 
3 315 328 285 0 
3 359 328 315 0 
3 359 325 328 0 
3 360 325 359 0 
3 360 322 325 0 
3 361 322 360 0 
3 361 319 322 0 
3 362 319 361 0 
3 362 317 319 0 
3 365 317 362 0 
3 365 318 317 0 
3 364 318 365 0 
3 364 379 318 0 
3 381 379 364 0 
3 381 376 379 0 
3 382 376 381 0 
3 382 373 376 0 
3 383 373 382 0 
3 383 369 373 0 
3 384 369 383 0 
3 384 370 369 0 
3 385 370 384 0 
3 385 386 370 0 
3 387 386 385 0 
3 387 388 386 0 
3 389 388 387 0 
3 390 391 392 0 
3 393 392 394 0 
3 395 390 392 0 
3 393 395 392 0 
3 395 341 390 0 
3 396 395 393 0 
3 397 398 396 0 
3 395 342 341 0 
3 396 398 395 0 
3 333 398 397 0 
3 398 342 395 0 
3 333 233 398 0 
3 233 331 329 0 
3 398 329 342 0 
3 233 329 398 0 
3 399 333 397 0 
3 334 333 399 0 
3 399 338 334 0 
3 338 400 339 0 
3 399 401 338 0 
3 389 402 388 0 
3 401 400 338 0 
3 389 403 402 0 
3 401 403 400 0 
3 402 403 401 0 
3 399 397 396 0 
3 404 399 396 0 
3 393 404 396 0 
3 404 401 399 0 
3 394 404 393 0 
3 404 402 401 0 
3 394 405 404 0 
3 405 402 404 0 
3 406 405 394 0 
3 405 388 402 0 
3 406 407 405 0 
3 368 407 406 0 
3 407 388 405 0 
3 368 367 407 0 
3 367 370 386 0 
3 407 386 388 0 
3 367 386 407 0 
3 346 408 351 0 
3 390 348 391 0 
3 346 409 408 0 
3 346 348 390 0 
3 410 400 403 0 
3 390 409 346 0 
3 410 409 400 0 
3 390 341 409 0 
3 341 339 400 0 
3 409 341 400 0 
3 411 409 410 0 
3 411 408 409 0 
3 412 408 411 0 
3 413 408 412 0 
3 414 392 415 0 
3 356 347 350 0 
3 415 392 391 0 
3 416 413 412 0 
3 413 351 408 0 
3 415 416 414 0 
3 356 348 347 0 
3 415 391 348 0 
3 417 413 416 0 
3 418 351 413 0 
3 415 417 416 0 
3 415 348 356 0 
3 417 418 413 0 
3 352 351 418 0 
3 356 417 415 0 
3 352 418 417 0 
3 356 355 417 0 
3 417 355 352 0 
3 363 381 364 0 
3 378 381 363 0 
3 378 382 381 0 
3 375 382 378 0 
3 375 383 382 0 
3 372 383 375 0 
3 372 384 383 0 
3 366 384 372 0 
3 366 385 384 0 
3 368 385 366 0 
3 368 387 385 0 
3 389 387 368 0 
3 406 389 368 0 
3 414 394 392 0 
3 419 403 389 0 
3 406 419 389 0 
3 406 394 414 0 
3 419 410 403 0 
3 414 419 406 0 
3 411 410 419 0 
3 414 416 419 0 
3 416 412 411 0 
3 419 416 411 0 
